<?xml version="1.0" encoding="UTF-8" standalone="no"?>
<!DOCTYPE svg PUBLIC "-//W3C//DTD SVG 1.1//EN"
 "http://www.w3.org/Graphics/SVG/1.1/DTD/svg11.dtd">
<!-- Generated by graphviz version 2.40.1 (20161225.0304)
 -->
<!-- Title: dependencies Pages: 1 -->
<svg width="719pt" height="284pt"
 viewBox="0.00 0.00 719.00 284.00" xmlns="http://www.w3.org/2000/svg" xmlns:xlink="http://www.w3.org/1999/xlink">
<g id="graph0" class="graph" transform="scale(1 1) rotate(0) translate(4 280)">
<title>dependencies</title>
<polygon fill="#ffffff" stroke="transparent" points="-4,4 -4,-280 715,-280 715,4 -4,4"/>
<text text-anchor="start" x="334.5091" y="-42.4" font-family="sans-serif" font-weight="bold" font-size="14.00" fill="#000000">Legend</text>
<polygon fill="#ffffb3" stroke="transparent" points="121.5,-10 121.5,-30 141.5,-30 141.5,-10 121.5,-10"/>
<text text-anchor="start" x="145.129" y="-15.4" font-family="sans-serif" font-size="14.00" fill="#000000"> &#160;Declarations</text>
<polygon fill="#8dd3c7" stroke="transparent" points="234.5,-10 234.5,-30 254.5,-30 254.5,-10 234.5,-10"/>
<text text-anchor="start" x="258.2251" y="-15.4" font-family="sans-serif" font-size="14.00" fill="#000000"> &#160;Module</text>
<polygon fill="#80b1d3" stroke="transparent" points="320.5,-10 320.5,-30 340.5,-30 340.5,-10 320.5,-10"/>
<text text-anchor="start" x="344.2812" y="-15.4" font-family="sans-serif" font-size="14.00" fill="#000000"> &#160;Bootstrap</text>
<polygon fill="#fdb462" stroke="transparent" points="417.5,-10 417.5,-30 437.5,-30 437.5,-10 417.5,-10"/>
<text text-anchor="start" x="441.1732" y="-15.4" font-family="sans-serif" font-size="14.00" fill="#000000"> &#160;Providers</text>
<polygon fill="#fb8072" stroke="transparent" points="513.5,-10 513.5,-30 533.5,-30 533.5,-10 513.5,-10"/>
<text text-anchor="start" x="537.2258" y="-15.4" font-family="sans-serif" font-size="14.00" fill="#000000"> &#160;Exports</text>
<g id="clust1" class="cluster">
<title>cluster_AppModule</title>
<polygon fill="none" stroke="#000000" stroke-dasharray="1,5" points="8,-70 8,-268 409,-268 409,-70 8,-70"/>
</g>
<g id="clust2" class="cluster">
<title>cluster_AppModule_declarations</title>
<polygon fill="none" stroke="#000000" points="16,-78 16,-130 271,-130 271,-78 16,-78"/>
</g>
<g id="clust5" class="cluster">
<title>cluster_AppModule_imports</title>
<polygon fill="none" stroke="#000000" points="279,-78 279,-130 401,-130 401,-78 279,-78"/>
</g>
<g id="clust7" class="cluster">
<title>cluster_AppModule_bootstrap</title>
<polygon fill="none" stroke="#000000" points="277,-208 277,-260 401,-260 401,-208 277,-208"/>
</g>
<g id="clust9" class="cluster">
<title>cluster_AppServerModule</title>
<polygon fill="none" stroke="#000000" stroke-dasharray="1,5" points="417,-143 417,-195 553,-195 553,-143 417,-143"/>
</g>
<g id="clust15" class="cluster">
<title>cluster_LazyModule</title>
<polygon fill="none" stroke="#000000" stroke-dasharray="1,5" points="561,-70 561,-195 703,-195 703,-70 561,-70"/>
</g>
<g id="clust16" class="cluster">
<title>cluster_LazyModule_declarations</title>
<polygon fill="none" stroke="#000000" points="569,-78 569,-130 695,-130 695,-78 569,-78"/>
</g>
<!-- AppComponent -->
<g id="node1" class="node">
<title>AppComponent</title>
<polygon fill="#ffffb3" stroke="#000000" points="262.9399,-122 157.0601,-122 157.0601,-86 262.9399,-86 262.9399,-122"/>
<text text-anchor="middle" x="210" y="-99.8" font-family="Times,serif" font-size="14.00" fill="#000000">AppComponent</text>
</g>
<!-- AppModule -->
<g id="node3" class="node">
<title>AppModule</title>
<polygon fill="#8dd3c7" stroke="#000000" points="380.6571,-187 377.6571,-191 356.6571,-191 353.6571,-187 297.3429,-187 297.3429,-151 380.6571,-151 380.6571,-187"/>
<text text-anchor="middle" x="339" y="-164.8" font-family="Times,serif" font-size="14.00" fill="#000000">AppModule</text>
</g>
<!-- AppComponent&#45;&gt;AppModule -->
<g id="edge1" class="edge">
<title>AppComponent&#45;&gt;AppModule</title>
<path fill="none" stroke="#000000" d="M210,-122.0225C210,-139.3734 210,-163 210,-163 210,-163 287.1174,-163 287.1174,-163"/>
<polygon fill="#000000" stroke="#000000" points="287.1174,-166.5001 297.1174,-163 287.1174,-159.5001 287.1174,-166.5001"/>
</g>
<!-- HomeComponent -->
<g id="node2" class="node">
<title>HomeComponent</title>
<polygon fill="#ffffb3" stroke="#000000" points="139.5451,-122 24.4549,-122 24.4549,-86 139.5451,-86 139.5451,-122"/>
<text text-anchor="middle" x="82" y="-99.8" font-family="Times,serif" font-size="14.00" fill="#000000">HomeComponent</text>
</g>
<!-- HomeComponent&#45;&gt;AppModule -->
<g id="edge2" class="edge">
<title>HomeComponent&#45;&gt;AppModule</title>
<path fill="none" stroke="#000000" d="M82,-122.2843C82,-143.3211 82,-175 82,-175 82,-175 287.1365,-175 287.1365,-175"/>
<polygon fill="#000000" stroke="#000000" points="287.1366,-178.5001 297.1365,-175 287.1365,-171.5001 287.1366,-178.5001"/>
</g>
<!-- AppComponent  -->
<g id="node5" class="node">
<title>AppComponent </title>
<polygon fill="#80b1d3" stroke="#000000" points="393.439,-252 284.561,-252 284.561,-216 393.439,-216 393.439,-252"/>
<text text-anchor="middle" x="339" y="-229.8" font-family="Times,serif" font-size="14.00" fill="#000000">AppComponent </text>
</g>
<!-- AppModule&#45;&gt;AppComponent  -->
<g id="edge4" class="edge">
<title>AppModule&#45;&gt;AppComponent </title>
<path fill="none" stroke="#000000" stroke-dasharray="1,5" d="M339,-187.1061C339,-187.1061 339,-205.991 339,-205.991"/>
<polygon fill="#000000" stroke="#000000" points="335.5001,-205.9909 339,-215.991 342.5001,-205.991 335.5001,-205.9909"/>
</g>
<!-- AppServerModule -->
<g id="node6" class="node">
<title>AppServerModule</title>
<polygon fill="#8dd3c7" stroke="#000000" points="545.1895,-187 542.1895,-191 521.1895,-191 518.1895,-187 424.8105,-187 424.8105,-151 545.1895,-151 545.1895,-187"/>
<text text-anchor="middle" x="485" y="-164.8" font-family="Times,serif" font-size="14.00" fill="#000000">AppServerModule</text>
</g>
<!-- AppModule&#45;&gt;AppServerModule -->
<g id="edge5" class="edge">
<title>AppModule&#45;&gt;AppServerModule</title>
<path fill="none" stroke="#000000" d="M380.8377,-169C380.8377,-169 414.6596,-169 414.6596,-169"/>
<polygon fill="#000000" stroke="#000000" points="414.6596,-172.5001 424.6596,-169 414.6595,-165.5001 414.6596,-172.5001"/>
</g>
<!-- MaterialModule -->
<g id="node4" class="node">
<title>MaterialModule</title>
<polygon fill="#8dd3c7" stroke="#000000" points="393.4706,-122 390.4706,-126 369.4706,-126 366.4706,-122 286.5294,-122 286.5294,-86 393.4706,-86 393.4706,-122"/>
<text text-anchor="middle" x="340" y="-99.8" font-family="Times,serif" font-size="14.00" fill="#000000">MaterialModule</text>
</g>
<!-- MaterialModule&#45;&gt;AppModule -->
<g id="edge3" class="edge">
<title>MaterialModule&#45;&gt;AppModule</title>
<path fill="none" stroke="#000000" d="M339,-122.1061C339,-122.1061 339,-140.991 339,-140.991"/>
<polygon fill="#000000" stroke="#000000" points="335.5001,-140.9909 339,-150.991 342.5001,-140.991 335.5001,-140.9909"/>
</g>
<!-- MaterialModule&#45;&gt;AppServerModule -->
<g id="edge6" class="edge">
<title>MaterialModule&#45;&gt;AppServerModule</title>
<path fill="none" stroke="#000000" d="M389.2557,-122.027C389.2557,-138.3976 389.2557,-160 389.2557,-160 389.2557,-160 414.6353,-160 414.6353,-160"/>
<polygon fill="#000000" stroke="#000000" points="414.6354,-163.5001 424.6353,-160 414.6353,-156.5001 414.6354,-163.5001"/>
</g>
<!-- AppServerModule&#45;&gt;AppComponent  -->
<g id="edge7" class="edge">
<title>AppServerModule&#45;&gt;AppComponent </title>
<path fill="none" stroke="#000000" stroke-dasharray="1,5" d="M424.8352,-178C403.6655,-178 385.042,-178 385.042,-178 385.042,-178 385.042,-205.973 385.042,-205.973"/>
<polygon fill="#000000" stroke="#000000" points="381.5421,-205.973 385.042,-215.973 388.5421,-205.973 381.5421,-205.973"/>
</g>
<!-- LazyComponent -->
<g id="node7" class="node">
<title>LazyComponent</title>
<polygon fill="#ffffb3" stroke="#000000" points="686.8147,-122 577.1853,-122 577.1853,-86 686.8147,-86 686.8147,-122"/>
<text text-anchor="middle" x="632" y="-99.8" font-family="Times,serif" font-size="14.00" fill="#000000">LazyComponent</text>
</g>
<!-- LazyModule -->
<g id="node8" class="node">
<title>LazyModule</title>
<polygon fill="#8dd3c7" stroke="#000000" points="675.5328,-187 672.5328,-191 651.5328,-191 648.5328,-187 588.4672,-187 588.4672,-151 675.5328,-151 675.5328,-187"/>
<text text-anchor="middle" x="632" y="-164.8" font-family="Times,serif" font-size="14.00" fill="#000000">LazyModule</text>
</g>
<!-- LazyComponent&#45;&gt;LazyModule -->
<g id="edge8" class="edge">
<title>LazyComponent&#45;&gt;LazyModule</title>
<path fill="none" stroke="#000000" d="M632,-122.1061C632,-122.1061 632,-140.991 632,-140.991"/>
<polygon fill="#000000" stroke="#000000" points="628.5001,-140.9909 632,-150.991 635.5001,-140.991 628.5001,-140.9909"/>
</g>
</g>
</svg>
